<svg version="1.1" viewBox="0 0 891 891" xmlns="http://www.w3.org/2000/svg" role="img" aria-labelledby="title">
<title id="title">Rethink AI brain logo</title>
<path transform="translate(389.38 38.375)" d="m0 0c22.374 17.536 35.821 37.907 40.196 66.332 0.508 5.079 0.552 10.059 0.549 15.164 1e-3 1.103 1e-3 1.103 4e-3 6.688-3e-3 2.412-7e-3 4.823-0.01 7.308v7.718c0 6.976-6e-3 13.953-0.013 20.93-6e-3 7.293-6e-3 14.587-8e-3 21.881-3e-3 13.808-0.011 27.617-0.021 41.425-0.011 15.722-0.017 31.444-0.022 47.165-0.01 32.338-0.028 64.676-0.05 97.014-0.585 0.219-0.585 0.219-3.543 1.328-25.942 9.731-43.367 22.155-55.332 47.485-5.608 13.494-6.516 26.715-6.125 41.187-4-2-4-2-8.937-5.313-17.719-10.777-35.022-12.284-55.063-8.687-15.343 4.347-27.184 11.402-39.508 21.324-22.602 17.319-51.421 23.617-79.394 20.051-10.721-2.068-19.537-6.16-29.098-11.375 0-5 0-5 1-6 3.604 6e-3 7.209 0.057 10.813 0.125 32.156 0.095 62.793-9.07 86.187-32.125 13.877-16.69 20.257-34.087 19-56-2.873-17.719-11.016-32.301-25.117-43.469-9.56-6.568-20.079-10.475-30.883-14.531-16.258-6.2-30.628-12.563-44-24-1.629-1.361-3.259-2.723-4.937-4.125-16.309-15.705-26.088-34.125-32.063-55.875v-4c-18.878 9.125-30.332 26.074-38 45-7.642 23.71-6.518 47.315 4 70 11.567 22.003 30.13 37.807 53.82 45.582 12.797 3.61 24.662 4.665 37.946 5.039 5.234 0.379 5.234 0.379 7.234 2.379-1 4-1 4-4.375 6.5-17.746 9.593-38.858 11.481-58.438 6.813-23.988-7.719-42.847-21.497-57.187-42.313l-2-1-2 4c-0.681 0.784-0.681 0.784-4.125 4.75-16.531 21.194-22.658 48.123-20.188 74.625 4.407 32.386 20.178 61.955 46.356 81.949 30.846 22.76 65.388 32.685 103.75 29.246 22.415-3.475 42.954-13.039 61.77-25.445 15.054-9.647 30.865-13.581 48.624-10.367 6.375 1.581 10.641 3.105 15.813 7.242l-1 5c-2.351 0.516-4.702 1.031-7.125 1.563-9.314 2.318-18.956 5.518-25.875 12.437h-2c-4.962 9.923-8.466 17.448-5.937 28.75 5.057 13.705 12.903 20.879 25.937 27.125 15.472 5.48 30.855 5.669 46.168-0.574 18.177-8.721 29.613-20.768 37.832-39.301 6.203-19.426 5.99-38.003 3-58 1.134 0.619 1.134 0.619 6.875 3.75 8.512 4.532 16.745 7.981 26.125 10.25 0.07 29.399 0.123 58.799 0.155 88.198 0.016 13.652 0.037 27.304 0.071 40.957 0.034 13.181 0.051 26.363 0.059 39.545 5e-3 5.022 0.016 10.044 0.032 15.066 0.022 7.049 0.025 14.098 0.024 21.147 5e-3 1.032 5e-3 1.032 0.032 6.254-0.072 34.227-9.428 64.61-33.623 89.583-25.329 24.516-57.878 35.771-92.914 35.461-56.896-2.482-107.67-31.046-145.84-72.211-16.551-20.036-30.787-44.185-34.629-70.27-1.033-6.3-1.751-10.342-6.723-14.601-4.141-2.538-8.375-4.821-12.648-7.129-31.721-22.194-53.104-53.048-61-91-3.97-23.822-2.552-47.424 3.5-70.75 1.739-7.6 1.739-7.6-0.25-13-1.072-1.402-2.145-2.805-3.25-4.25-20-33.872-29.125-72.246-20.324-111.25 6.84-24.555 18.543-45.479 36.324-63.754h2c0.911-6.166 0.861-11.044-0.437-17.125-5.917-32.964 2.456-64.569 21.437-91.875 12.297-14.291 26.667-29.889 45-36 1.23-3.689 1.409-7.121 1.75-11 3.307-30.071 15.965-53.76 38.25-74 17.227-13.648 36.349-20.484 57.918-23.227 4.082-0.773 4.082-0.773 9.082-3.773 1.957-3.406 1.957-3.406 3.813-7.5 12.471-26.017 35.105-45.354 62.171-54.906 30.301-9.834 62.142-8.329 89.391 8.781zm-114.38 45.625c-15.656 21.049-21.038 45.663-17.344 71.609 5.43 24.058 20.56 40.013 40.344 53.391 3.036 2.287 6.041 4.615 9 7 1.361 1.093 2.722 2.186 4.125 3.313 12.817 12.196 20.09 29.131 21.188 46.687 0.094 7.633-0.197 13.595-2.313 21l-5-1c-0.329-1.137-0.657-2.274-0.996-3.445-5.858-19.02-15.571-34.594-32.941-45.055-19.82-9.822-39.769-10.715-61.063-5.5-3.671 1.322-7.339 2.651-11 4l-5-1c1.841-9.203 7.978-14.223 15.25-19.75 6.115-3.85 12.215-7.179 18.75-10.25-1.011-1.691-2.021-3.382-3.063-5.125-13.957-24.37-18.381-45.903-17.937-73.875-19.071 0.867-36.092 10.35-49 24-16.971 20.66-19.859 42.953-19 69 2.773 25.24 14.094 44.321 31.813 61.75 12.739 9.887 27.369 15.169 42.308 20.805 25.79 9.929 45.493 26.408 57.192 51.57 2.32 6.145 3.732 12.336 5.124 18.75 2.358 10.351 5.459 15.959 13.938 22.5 12.339 7.003 24.87 7.81 38.625 4.625 20.899-7.541 33.75-20.299 43.363-40.152 6.769-15.914 8.95-32.034 8.903-49.243 1e-3 -0.772 1e-3 -0.772 5e-3 -4.683 2e-3 -3.255-2e-3 -6.51-0.01-9.765-0.011-4.944 0-9.887 0.012-14.831-1e-3 -3.178-3e-3 -6.355-7e-3 -9.533 2e-3 -0.73 2e-3 -0.73 0.012-4.424-0.176-39.118-15.802-70.371-42.278-98.369-1.258-1.341-2.516-2.681-3.813-4.063-4.811-4.524-9.929-8.463-15.21-12.421-2.977-2.516-2.977-2.516-4.977-6.516l2-2c21.956 2.622 38.639 16.366 55 30 2.336 2.998 4.67 5.998 7 9h2c0.05-9.001 0.086-18.001 0.11-27.002 0.01-3.057 0.023-6.114 0.041-9.171 0.024-4.414 0.036-8.827 0.044-13.241 0.011-1.35 0.021-2.699 0.032-4.09 2e-3 -20.712-4.029-37.886-17.04-54.309-12.601-12.601-28.102-19.164-45.874-19.624-24.451 0.512-45.987 11.245-62.313 29.437zm-202 474c-5.255 32.515-0.363 62.777 17.25 90.75 19.605 25.796 44.078 42.278 76.25 47.559 16.814 2.113 33.58 0.77 49.5-5.309-4.238-10.595-12.431-16.37-22.5-21.125-4.677-1.595-9.121-2.709-13.937-3.75-10.089-2.281-18.846-5.956-25.563-14.125v-3c7 0 7 0 11.805 0.973 5.204 1.029 10.024 1.331 15.32 1.464 20.341 0.888 37.642 5.346 52.875 19.563 2.819 3.455 5.522 6.986 8.227 10.531 12.537 15.681 31.043 25.312 50.773 28.469 8.349 0.693 16.621 1 25 1l1 5c-19.948 10.468-38.743 13.962-61 8-7.539-2.628-14.32-5.547-21-10-7 1-7 1-13.25 3.313-22.678 8.27-45.023 8.416-68.75 5.687 3.546 24.82 20.301 45.33 37 63 1.258 1.341 2.516 2.681 3.813 4.063 32.036 30.123 73.146 47.723 117.19 46.937 0-5.197-4.062-8.869-7-13-1.279-2.145-2.558-4.29-3.875-6.5-11.327-17.849-25.496-26.709-44.453-34.957-0.771-0.42-0.771-0.42-4.672-2.543l-1-5c24.819-0.781 45.003 2.376 64 20 4.232 5.331 8.153 10.764 12 16.375 4.09 4.942 8.87 8.582 15 10.625 12.651 0.781 20.5-2.838 30-11 16.81-15.447 24.295-34.676 27-57 0.164-4.567 0.236-9.137 0.227-13.707 0-0.644 0-0.644 1e-3 -3.907-1e-3 -4.21-0.017-8.419-0.033-12.628-3e-3 -2.94-6e-3 -5.879-8e-3 -8.819-8e-3 -7.697-0.027-15.394-0.05-23.09-0.02-7.871-0.029-15.741-0.039-23.611-0.022-15.413-0.056-30.825-0.098-46.238-4 2-4 2-8.313 5.625-21.399 16.461-46.101 21.76-72.687 20.375-21.291-3.128-40.648-12.863-53.687-30.25-7.099-10.721-10.445-21.321-13.313-33.75-5.468 0.911-9.683 2.308-14.813 4.313-39.754 14.831-82.416 12.286-121.21-4.481-14.921-6.874-28.149-15.569-40.977-25.832h-2z" fill="#03183F"/>
<path transform="translate(616,43)" d="m0 0c18.221 13.947 29.945 30.819 37.395 52.395 1.605 3.605 1.605 3.605 5.605 5.605 3.181 0.717 6.37 1.399 9.562 2.062 25.513 5.962 46.598 20.216 61.438 41.938 11.316 18.519 15.008 37.227 15.656 58.754 0.344 4.246 0.344 4.246 2.344 7.246 2.882 1.289 5.807 2.483 8.75 3.625 26.709 10.992 48.073 30.973 60.062 57.375 9.248 22.284 10.909 44.298 6.938 68-0.75 6-0.75 6 2.25 11 1.671 1.774 3.341 3.548 5.062 5.375 25.218 27.214 35.156 63.125 33.938 99.625-1.819 27.731-10.691 53.918-28.5 75.438-4.059 5.291-4.849 8.91-3.977 15.542 0.281 1.389 0.562 2.777 0.852 4.208 6.357 33.727 1.547 68.467-16.863 97.773-4.994 7.161-10.511 13.69-16.512 20.039-0.516 0.567-0.516 0.567-3.125 3.438-9.955 9.151-21.134 15.973-32.875 22.562-1.811 3.622-1.727 7.894-2.188 11.875-4.562 33.871-20.459 62.02-46.687 84.063-9.603 7.233-20.434 13.123-31.813 17-6.176 2.953-8.539 7.432-12.312 13.062-2.939 3.388-5.937 6.724-9 10-1.217 1.32-2.434 2.64-3.688 4-26.466 24.549-58.834 33.688-94.191 33.285-31.444-1.259-58.689-15.794-80.309-38.133-19.991-22.407-29.365-50.369-29.168-80.219-2e-3 -1.522-5e-3 -3.044-7e-3 -4.612-3e-3 -5.008 0.016-10.016 0.035-15.024 3e-3 -3.559 5e-3 -7.117 6e-3 -10.675 4e-3 -7.482 0.019-14.963 0.041-22.444 0.028-9.369 0.039-18.738 0.044-28.107 0.025-46.031 0.406-92.047 1.237-138.07 3.733-0.968 7.467-1.937 11.2-2.905 4.479-1.291 8.594-3.099 12.8-5.095h2c9e-3 2.34 0.019 4.679 0.028 7.09 0.04 8.737 0.106 17.474 0.18 26.211 0.028 3.771 0.049 7.541 0.063 11.312 0.022 5.442 0.068 10.883 0.12 16.325 1e-3 1.667 2e-3 3.334 3e-3 5.052 0.2 16.233 2.435 31.393 14.044 43.635 0.587 0.557 0.587 0.557 3.562 3.375 1.074 1.233 2.148 2.467 3.254 3.737 3.614 4.113 7.359 7.983 11.242 11.841 1.461 1.454 2.922 2.909 4.427 4.407 0.78 0.775 0.78 0.775 4.729 4.695 3.305 3.291 6.609 6.583 9.912 9.875 5.209 5.183 10.419 10.365 15.632 15.545 5.031 5.001 10.057 10.009 15.081 15.017 1.575 1.562 3.15 3.123 4.773 4.732 1.438 1.435 2.877 2.871 4.36 4.35 0.638 0.634 0.638 0.634 3.866 3.843 2.724 2.958 2.724 2.958 2.724 4.958l4 2c5.664 8.497 5.12 14.725 5.062 24.688-4e-3 1.465-9e-3 2.93-0.013 4.439-0.012 3.624-0.03 7.249-0.049 10.873-1.732 0.144-3.465 0.289-5.25 0.438-5.75 0.562-5.75 0.562-9.75 1.562-3.292-3.292-1.128-16.803-1.133-21.348-1.349-10.352-8.708-15.618-15.882-22.796-1.575-1.578-3.149-3.156-4.772-4.782-1.685-1.683-3.371-3.367-5.108-5.101-1.738-1.74-3.477-3.48-5.269-5.272-3.667-3.669-7.336-7.336-11.007-11.002-3.772-3.768-7.542-7.538-11.31-11.311-5.427-5.433-10.857-10.862-16.289-16.29-1.695-1.698-3.391-3.396-5.138-5.145-1.559-1.556-3.118-3.112-4.724-4.714-0.689-0.689-0.689-0.689-4.175-4.173-3.193-3.066-3.193-3.066-5.193-4.066 0.093 14.803 0.2 29.606 0.317 44.409 0.039 5.032 0.073 10.064 0.105 15.096 0.046 7.248 0.104 14.497 0.164 21.745 0.011 2.236 0.023 4.472 0.035 6.776 0.278 29.717 4.753 56.12 26.379 77.974 18.397 16.69 42.18 25.128 67 24 26.399-2.708 48.566-12.673 67-32 3.261-4.213 6.1-8.515 9-13 5.133-7.7 8.69-8.618 17.5-11.188 23.364-7.173 40.075-23.678 51.5-44.812 8.095-16.37 9.49-32.944 8.848-50.965 0.152-5.035 0.152-5.035 3.152-10.035 4.684-2.176 4.684-2.176 10.438-4.312 24.909-9.793 42.865-27.518 53.812-51.938 9.583-25.817 9.078-51.576 0.75-77.75-1.23-9e-3 -2.461-0.019-3.729-0.028-5.59-0.054-11.18-0.138-16.771-0.222-1.936-0.014-3.872-0.028-5.867-0.043-1.869-0.032-3.738-0.064-5.664-0.098-1.718-0.021-3.436-0.042-5.205-0.063-6.875-0.788-11.216-2.881-15.953-7.975-1.04-1.339-2.08-2.679-3.152-4.059-12.316-14.774-23.137-26.933-43.027-29.1-10.306-0.442-20.519-0.224-30.823 0.147-4.46 0.039-8.919 0.063-13.378 0.074-11.63 0.066-23.247 0.33-34.873 0.638-11.905 0.279-23.812 0.367-35.72 0.473-23.285 0.234-46.56 0.678-69.838 1.256-0.03 8.541-0.015 17.081 0.043 25.623 0.013 2.904 0.014 5.808 2e-3 8.711-0.015 4.181 0.014 8.36 0.053 12.541 5e-3 2.514 0.01 5.027 0.016 7.617 0.989 7.263 2.656 9.578 7.886 14.508l1 3c7.679 2.194 14.543 2.234 22.434 2.16 1.505-5e-3 3.011-0.01 4.563-0.016 4.813-0.017 9.627-0.049 14.441-0.082 4.781-0.027 9.562-0.052 14.344-0.071 2.971-0.012 5.941-0.029 8.912-0.053 30.579-0.145 30.579-0.145 40.997 9.328 1.608 1.644 3.215 3.289 4.871 4.984 0.806 0.817 0.806 0.817 4.879 4.953 2.796 2.942 5.548 5.929 8.219 8.985 4.292 4.899 8.952 9.348 13.645 13.859 2.695 2.953 2.695 2.953 3.695 6.953-1.237 0.577-2.475 1.155-3.75 1.75-4.25 2.25-4.25 2.25-8.25 6.25-4.513-2.256-6.625-4.635-10-8.375-24.847-27.048-24.847-27.048-30-29.625-6.161-0.123-12.312-0.186-18.473-0.211-3.826-0.028-7.652-0.057-11.478-0.086-6.055-0.041-12.109-0.078-18.164-0.104-5.828-0.028-11.655-0.074-17.483-0.122-1.806-4e-3 -3.613-7e-3 -5.474-0.01-1.695-0.017-3.389-0.033-5.135-0.05-1.484-9e-3 -2.968-0.017-4.497-0.025-9.246-0.844-14.704-4.009-21.296-10.392-1.403-1.299-2.805-2.599-4.25-3.938-11.197-12.13-9.17-26.536-9.375-42.124-0.071-2.418-0.142-4.836-0.215-7.327-0.188-17.983-0.188-17.983 5.102-26.357 1.563-1.404 3.127-2.808 4.738-4.254 1.54-2.294 3.035-4.62 4.438-7 1.8-3.032 3.606-6.066 5.562-9 6.084-0.303 12.066-0.408 18.152-0.388 0.953-3e-3 0.953-3e-3 5.775-0.016 6.337-0.013 12.674-5e-3 19.011 6e-3 4.389-2e-3 8.779-5e-3 13.169-9e-3 9.221-5e-3 18.441 2e-3 27.662 0.016 11.819 0.017 23.638 7e-3 35.456-0.011 9.075-0.011 18.15-7e-3 27.224 1e-3 4.357 2e-3 8.714-1e-3 13.071-8e-3 6.098-8e-3 12.195 4e-3 18.292 0.021 0.902-3e-3 0.902-3e-3 5.464-0.019 13.076 0.067 22.075 0.913 31.724 10.407 0.926 0.908 1.852 1.816 2.807 2.751 3.168 3.126 6.308 6.277 9.443 9.437 1.075 1.079 2.15 2.159 3.258 3.271 2.833 2.845 5.662 5.693 8.492 8.541 5.955 5.955 11.454 4.615 19.602 4.693 2.029-2e-3 4.058-4e-3 6.148-5e-3 2.014 0.04 4.027 0.081 6.102 0.123 1.941 4e-3 3.882 9e-3 5.882 0.013 1.776 0.011 3.552 0.023 5.382 0.034 8.14-1.43 11.853-6.586 16.884-12.796 17.015-25.789 23.256-55.387 17.043-85.898-6.007-23.982-17.129-45.133-38.043-59.164-6-5-6-5-7.023-8.773 0.026-4.739 0.931-8.353 2.398-12.852 6.647-20.685 5.206-42.107-4.125-61.687-10.724-20.294-26.472-34.326-48.25-41.688-5.219-1.164-10.418-2.145-15.699-2.98-4.301-1.02-4.301-1.02-9.301-5.02-1.376-5.046-0.891-8.68-0.062-13.875 2.982-19.999 0.825-39.049-10.313-56.375-12.532-16.422-27.92-26.416-48.625-29.75-5.47-0.289-10.905-0.438-16.383-0.434-4.617-0.566-4.617-0.566-10.617-5.566-1.285-4.441-1.285-4.441-2.062-9.562-3.336-18.92-11.931-34.307-26.938-46.5-19.809-13-40.233-18.9-63.793-14.071-17.242 4.643-29.641 13.625-40.207 28.133-8.249 15.735-10.1 30.316-10.189 47.81-9e-3 1.36-0.017 2.721-0.026 4.122-0.017 2.942-0.032 5.883-0.045 8.825-0.021 4.652-0.048 9.304-0.077 13.955-0.07 11.547-0.129 23.093-0.189 34.639-0.051 9.772-0.106 19.543-0.166 29.314-0.026 4.589-0.047 9.178-0.068 13.767-0.016 2.802-0.033 5.604-0.051 8.405-6e-3 1.226-6e-3 1.226-0.038 7.428-0.151 5.735-0.151 5.735-1.151 9.735-0.12 3.7-0.177 7.401-0.205 11.103-0.02 2.322-0.04 4.644-0.061 7.036-0.016 2.517-0.033 5.034-0.05 7.627-0.021 2.569-0.042 5.138-0.063 7.785-0.056 6.832-0.105 13.664-0.153 20.497-0.05 6.971-0.106 13.942-0.161 20.913-0.108 13.68-0.209 27.359-0.307 41.039-5-1-5-1-12.438-3.5-7.562-2.5-7.562-2.5-13.562-3.5-0.748-60.488-1.166-120.98-1.287-181.47-0.015-7.049-0.039-14.098-0.072-21.147-0.038-8.413-0.056-16.826-0.06-25.239-4e-3 -3.116-0.016-6.233-0.034-9.349-0.194-34.113 4.776-60.799 29.453-85.796 37.253-33.238 91.693-32.838 132-5z" fill="#031940"/>
<path transform="translate(546,185)" d="m0 0c5-0.042 10-0.041 15 0 2.784 2.784 1.192 13.48 1.203 17.66 6e-3 1.689 0.012 3.378 0.017 5.117 0.01 3.586 0.016 7.171 0.02 10.757 0.01 5.48 0.041 10.96 0.072 16.441 7e-3 3.478 0.012 6.957 0.016 10.435 0.012 1.64 0.025 3.28 0.038 4.969-0.02 10.062-0.244 17.013-6.916 24.723-1.454 1.422-2.909 2.843-4.407 4.308-1.588 1.567-3.175 3.134-4.811 4.748-1.664 1.619-3.329 3.237-5.044 4.904-3.28 3.218-6.557 6.438-9.833 9.661-1.457 1.42-2.915 2.841-4.417 4.305-1.299 1.31-2.599 2.621-3.938 3.972-1.055 1.044-2.111 2.089-3.198 3.165-3.469 4.748-3.559 7.332-3.575 13.167-0.02 1.861-0.039 3.723-0.059 5.64 9e-3 1.999 0.018 3.997 0.027 6.055-0.013 2.055-0.027 4.109-0.041 6.226-0.038 6.561-0.034 13.123-0.029 19.685-0.018 4.448-0.039 8.897-0.063 13.345-0.051 10.906-0.07 21.811-0.062 32.717 7.884-0.019 15.767-0.071 23.651-0.153 4.001-0.034 8.002-0.043 12.003-0.052 2.511-0.029 5.021-0.058 7.608-0.088 2.32-0.016 4.64-0.031 7.03-0.048 5.708-0.659 5.708-0.659 10.708-5.659 0.612-4.28 0.612-4.28 0.602-9.359 0.015-1.839 0.03-3.677 0.046-5.571-3e-3 -0.96-3e-3 -0.96-0.023-5.82 0-3.786 0.013-7.573 0.039-11.359-6e-3 -1.681-0.011-3.362-0.017-5.093 0.647-8.79 3.213-14.54 9.353-20.798 1.134-0.969 2.269-1.939 3.438-2.938 3.95-3.395 7.159-7.122 10.562-11.062 2.609-2.723 5.265-5.404 8-8h2l2-4c2.285-2.383 4.633-4.707 7.012-6.996 1.396-1.363 2.793-2.726 4.232-4.131 2.966-2.878 5.94-5.747 8.922-8.609 1.393-1.365 2.786-2.729 4.221-4.135 1.291-1.247 2.582-2.494 3.913-3.779 0.445-0.553 0.445-0.553 2.7-3.35-1-5-1-5-2-8-0.544-9.521-0.269-15.928 5-24 5.911-6.134 11.417-8.678 19.875-9.438 8.342 0.713 13.411 2.845 19.563 8.563 5.359 7.333 6.562 12.856 6.562 21.875-2.782 9.793-6.31 15.142-15 20.438-5 1.562-5 1.562-11.889 0.83-7.019-0.048-10.19 1.648-15.398 6.3-2.534 2.53-5.028 5.101-7.486 7.705-1.331 1.35-2.661 2.699-4.032 4.089-4.226 4.304-8.398 8.657-12.57 13.013-2.859 2.925-5.72 5.847-8.586 8.766-22.138 22.629-22.138 22.629-22.285 32.269-0.017 0.856-0.017 0.856-0.1 5.19-0.06 3.614-0.118 7.229-0.172 10.843-0.034 1.722-0.068 3.443-0.103 5.217-0.013 0.787-0.013 0.787-0.076 4.77-0.641 9.669-2.706 15.345-9.303 22.57-8.789 6.562-14.134 7.123-24.984 7.098-2.379-4e-3 -4.757-7e-3 -7.207-0.01-1.248-4e-3 -1.248-4e-3 -7.559-0.026-2.51-4e-3 -5.02-9e-3 -7.605-0.013-6.215-0.012-12.43-0.028-18.645-0.049-0.271-0.548-0.271-0.548-1.642-3.324-0.358-0.72-0.358-0.72-2.167-4.364-0.707-1.426-1.414-2.853-2.142-4.324-3.188-6.204-6.405-11.555-11.683-16.156-4.904-7.04-4.292-13.873-4.155-22.141 3e-3 -1.676 6e-3 -3.352 8e-3 -5.08 0.013-3.539 0.043-7.079 0.088-10.618 0.068-5.408 0.082-10.813 0.088-16.222 0.019-3.443 0.041-6.886 0.066-10.33 6e-3 -1.612 0.013-3.225 0.02-4.887 0.37-25.081 17.308-36.451 34.14-53.048 0.723-0.717 0.723-0.717 4.379-4.346 1.32-1.303 2.64-2.606 4-3.949 5.931-6.348 4.231-14.457 4.316-22.691 0.021-1.639 0.042-3.277 0.063-4.965 0.066-5.247 0.125-10.495 0.183-15.743 0.044-3.551 0.087-7.102 0.131-10.654 0.108-8.719 0.209-17.439 0.307-26.158zm115 80c-2 4-2 4-1 10 3 3 3 3 9 4 4-2 4-2 6-6-1-6-1-6-5-10-5 0-5 0-9 2z" fill="#031A42"/>
<path transform="translate(478.06 399.38)" d="m0 0c14.68 11.435 23.233 24.48 26.75 42.875 0.97 19.409-3.183 36.482-16.125 51.313-14.479 13.842-29.891 18.852-49.527 18.71-15.254-0.808-28.443-7.555-39.16-18.273-12.695-15.916-17.269-31.882-16-52 2.604-16.702 10.87-30.033 23.75-40.813 21.509-14.411 48.442-16.509 70.312-1.812zm-58.062 28.625c-6.77 8.685-9 16.026-9 27 2.395 10.514 7.107 18.731 16 25 9.469 4.284 17.05 5.073 27.187 2.875 7.954-3.099 13.929-7.883 18.813-14.875 4.632-12.557 4.775-21.464 0-34-6.314-8.907-14.267-13.853-25-16-10.912-0.827-19.905 2.727-28 10z" fill="#055BFA"/>
<path transform="translate(730,412)" d="m0 0c0.99 2.31 1.98 4.62 3 7l5 6c-2 4-2 4-7 8l-5 6c-0.639 0.557-0.639 0.557-3.875 3.375-4.125 3.625-4.125 3.625-7.625 7.75-4.539 5.025-8.903 8.226-15.5 9.875-5.51 0.093-11.008 0.126-16.519 0.114h-5.174c-5.659-1e-3 -11.319-9e-3 -16.979-0.016-3.918-2e-3 -7.836-4e-3 -11.753-5e-3 -10.325-3e-3 -20.649-0.013-30.973-0.024-10.53-0.011-21.06-0.015-31.59-0.02-20.671-0.011-41.341-0.028-62.012-0.049-0.098-12.402-0.098-12.402 0-16 2.705-2.705 12.718-1.155 16.731-1.158 0.83-2e-3 0.83-2e-3 5.031-0.015 3.62-0.011 7.239-0.019 10.859-0.026 5.723-0.012 11.446-0.031 17.168-0.053 16.277-0.062 32.553-0.116 48.83-0.149 9.941-0.021 19.882-0.057 29.822-0.101 3.798-0.014 7.595-0.023 11.392-0.026 5.306-5e-3 10.612-0.028 15.918-0.055 0.79 1e-3 0.79 1e-3 4.786 9e-3 8.426-0.065 13.17-0.346 19.477-6.245 1.093-1.116 2.185-2.231 3.31-3.38 0.597-0.604 0.597-0.604 3.615-3.662 1.237-1.263 2.474-2.526 3.749-3.827 2.457-2.508 4.919-5.012 7.386-7.511 1.089-1.112 2.178-2.224 3.3-3.37 2.626-2.431 2.626-2.431 4.626-2.431z" fill="#03183E"/>
<g fill="#055BFA">
<path transform="translate(589,735)" d="m0 0h1v27l5 1c6.05 3.876 9.665 7.633 13 14 1.834 9.171 1.464 15.692-3 24-4.778 5.973-9.553 9.138-17 11-9.03 0-14.054-0.823-21.312-6.188-6.438-6.655-8.575-12.561-8.688-21.812 1.558-8.906 5.581-13.755 12-20 8.063-3.225 8.909-3 19-3v-26zm-9 44-4 4v7l4 4h7l4-4v-7l-4-4h-7z"/>
<path transform="translate(567,138)" d="m0 0c7.762 5.625 10.971 11.13 12.938 20.438 0.109 8.016-1.794 13.049-6.626 19.437-6.523 6.24-10.112 7.925-19.187 8.75-9.492-0.833-14.438-3.506-20.625-10.687-4.757-7.493-4.992-13.158-4.5-21.938 3.501-9.002 8.434-13.717 17-18 7.7-1.925 13.876-1.067 21 2zm-16 15c-4 4-4 4-5 9 3 5 3 5 9 7 5-3 5-3 7-6l-1-7c-4-3-4-3-10-3z"/>
<path transform="translate(765.38 382.06)" d="m0 0c7.815 4.963 11.461 9.922 13.625 18.938 0.823 8.131-0.683 13.074-5 20-5.476 5.847-10.135 8.465-18 10-9.333 0-15.554-2.81-22.375-9.126-4.193-6.19-5.662-12.114-5.562-19.562 1.665-7.662 4.379-11.755 9.937-17.312 9.096-5.646 17.044-6.902 27.375-2.938zm-15.375 15.938c-1.32 1.319-2.64 2.639-4 4v6c1.65 1.649 3.3 3.3 5 5 7-1 7-1 10-4 1-4 1-4-2-10-2-1-2-1-9-1z"/>
<path transform="translate(684.44 625.56)" d="m0 0c6.949 4.754 10.212 8.62 13.562 16.438 0.7 9.527 0.24 15.913-5 24-7.041 5.868-11.92 8.636-21 9-10.079-1.479-15.782-6.109-22-14-2.658-7.976-2.812-14.068-0.562-22.188 7.281-13.674 20.314-18.421 35-13.25zm-13.438 15.438c-5 4-5 4-6 11 1.65 1.649 3.3 3.299 5 5h6c4-4 4-4 5-10-4-5-4-5-10-6z"/>
</g>
</svg>
